# xmcd CD database file generated by OrangeCD 6.2
#
# Track frame offsets:
#	150
#	10232
#	20310
#	35134
#	49957
#	66759
#	83545
#	97262
#	110975
#	124827
#	138675
#	152464
#	166275
#	178950
#	191621
#	206297
#	220978
#	233846
#	246727
#	266473
#	286064
#
# Disc length: 3832 seconds
#
# Revision: 0
# Processed by: cddbd v1.5.2PL0 Copyright (c) Steve Scherf et al.
# Submitted via: OrangeCD 6.2
#
DISCID=390ef615
DTITLE=Jimi Hendrix - Hal Leonard Jazz Play Along Vol. 80
DYEAR=2008
DGENRE=Blues Rock
TTITLE0=Castles Made Of Sand (Split)
TTITLE1=Castles Made Of Sand (Stereo)
TTITLE2=Fire (Split)
TTITLE3=Fire (Stereo)
TTITLE4=Foxey Lady (Split)
TTITLE5=Foxey Lady (Stereo)
TTITLE6=Have You Ever Been (To Electric Ladyland) (Split)
TTITLE7=Have You Ever Been (To Electric Ladyland) (Stereo)
TTITLE8=Little Wing (Split)
TTITLE9=Little Wing (Stereo)
TTITLE10=Manic Depression (Split)
TTITLE11=Manic Depression (Stereo)
TTITLE12=Purple Haze (Split)
TTITLE13=Purple Haze (Stereo)
TTITLE14=Third Stone From The Sun (Split)
TTITLE15=Third Stone From The Sun (Stereo)
TTITLE16=Voodoo Child (Slight Return) (Split)
TTITLE17=Voodoo Child (Slight Return) (Stereo)
TTITLE18=The Wind Cries Mary (Split)
TTITLE19=The Wind Cries Mary (Stereo)
TTITLE20=B flat Tuning Notes
EXTD=Each song has two tracks:\n\n1) Split Track/Melody\n\nWoodwind, Brass, Key
EXTD=board and Mallet Players can use this track as a learning tool for melody 
EXTD=style and inflection\n\nBass Players can learn and perform with this track
EXTD=remove the recorded bass track by turning down the volume on the LEFT c
EXTD=hannel\n\nKeyboard and Guitar Players can learn and perform with this trac
EXTD=k - remove the recorded piano part by turning down the volume on the RIGHT
EXTD=channel\n\n2) Full Stereo Track\n\nSoloists or Groups can learn and perfo
EXTD=rm with this accompaniment track with the RHYTHM SECTION only
EXTT0=
EXTT1=
EXTT2=
EXTT3=
EXTT4=
EXTT5=
EXTT6=
EXTT7=
EXTT8=
EXTT9=
EXTT10=
EXTT11=
EXTT12=
EXTT13=
EXTT14=
EXTT15=
EXTT16=
EXTT17=
EXTT18=
EXTT19=
EXTT20=
PLAYORDER=
